<svg aria-hidden="true" style="width:0;height:0;position:absolute;overflow:hidden" xmlns="http://www.w3.org/2000/svg"><defs><symbol id="icon-github" viewBox="0 0 20 20"><path d="M10 .247c-5.525 0-10 4.478-10 10a9.997 9.997 0 0 0 6.837 9.487c.5.094.683-.215.683-.481 0-.237-.008-.867-.012-1.7-2.782.603-3.368-1.342-3.368-1.342-.455-1.154-1.113-1.463-1.113-1.463-.906-.62.07-.607.07-.607 1.004.07 1.532 1.03 1.532 1.03.892 1.529 2.341 1.087 2.913.832.09-.647.348-1.088.633-1.338-2.221-.25-4.555-1.11-4.555-4.942 0-1.092.388-1.983 1.029-2.683-.112-.252-.45-1.269.087-2.647 0 0 .838-.268 2.75 1.025.8-.222 1.65-.332 2.5-.338.85.005 1.7.115 2.5.337 1.9-1.293 2.737-1.025 2.737-1.025.537 1.377.2 2.394.1 2.647.638.7 1.025 1.592 1.025 2.683 0 3.842-2.338 4.688-4.563 4.933.35.3.675.913.675 1.85 0 1.338-.013 2.413-.013 2.738 0 .262.175.575.688.475a9.966 9.966 0 0 0 6.863-9.474c0-5.522-4.478-10-10-10z"/></symbol><symbol id="icon-linkedin" viewBox="0 0 20 20"><path d="M5 3c0 1.062-.71 1.976-2.001 1.976C1.784 4.976 1 4.114 1 3.052 1 1.962 1.76 1 3 1s1.976.91 2 2zM1 19V6h4v13H1zM7 10.444c0-1.545-.051-2.836-.102-3.951h3.594l.178 1.723h.076c.506-.811 1.746-2 3.822-2C17.1 6.216 19 7.911 19 11.558V19h-4v-6.861c0-1.594-.607-2.81-2-2.81-1.062 0-1.594.86-1.873 1.569-.102.254-.127.608-.127.963V19H7v-8.556z"/></symbol><symbol id="icon-ukraine" viewBox="0 0 32 32"><path fill="#2a75e6" style="fill:var(--color1,#2a75e6)" d="M23.342 3h-.009a8.162 8.162 0 0 0-7.312 4.532L16 7.579C14.643 4.846 11.87 3 8.667 3h-.01.001C4.153 3 .5 6.638.5 11.125.5 21.688 16 29 16 29s15.5-7.313 15.5-17.875C31.5 6.638 27.848 3 23.342 3z"/><path fill="#f9d549" style="fill:var(--color2,#f9d549)" d="M1.595 16C5.129 23.871 16 29 16 29s10.871-5.129 14.405-13z"/></symbol><symbol id="icon-flag_ukraine" viewBox="0 0 32 32"><path fill="#e6e6e6" style="fill:var(--color1,#000)" d="M5.5 2.5a2 2 0 1 0-3.009 1.727l.009.005V31.5h2V4.232c.602-.352 1-.995 1-1.732v-.001z"/><path fill="#2a75e6" style="fill:var(--color2,#2a75e6)" d="M30.5 23.381c-8.667-2.814-17.333 3.159-26 .345v-19.5c8.667 2.814 17.333-3.159 26-.345z"/><path fill="#f9d549" style="fill:var(--color3,#f9d549)" d="M4.5 13.725v10c8.667 2.814 17.333-3.159 26-.345v-10c-8.667-2.814-17.333 3.159-26 .345z"/></symbol></defs></svg>