<svg width="15" height="15" xmlns="http://www.w3.org/2000/svg"><g id="Page-1" stroke="none" stroke-width="1" fill="none" fill-rule="evenodd"><g id="Film" transform="translate(-1566 -1086)" fill-rule="nonzero"><g id="Group" transform="translate(1566 1086)"><path d="M4.406 11.266A6.859 6.859 0 0 0 9.66 0a7.68 7.68 0 0 1-2.35 14.991A7.68 7.68 0 0 1 0 9.66a6.828 6.828 0 0 0 4.406 1.606Z" id="Path" fill="#FFD93B"/><path d="M12.058 1.283a7.634 7.634 0 0 1 1.644 4.739 7.68 7.68 0 0 1-7.68 7.68 7.634 7.634 0 0 1-4.738-1.645 7.655 7.655 0 0 0 6.027 2.934 7.68 7.68 0 0 0 7.68-7.68 7.656 7.656 0 0 0-2.933-6.028Z" id="Path" fill="#F4C534"/><g fill="#FFD83B" id="Path"><path d="m2.584.538.79 1.604 1.77.257-1.28 1.248.302 1.762-1.582-.832L1 5.409l.302-1.762-1.28-1.248 1.77-.257zM7.046.025l.41.832.917.133-.664.647.157.913-.82-.432-.82.432.157-.913L5.719.99l.917-.133z" transform="translate(1.26 2.46)"/></g></g></g></g></svg>