<svg xmlns="http://www.w3.org/2000/svg" aria-hidden="true" style="width:0;height:0;position:absolute;overflow:hidden"><defs><symbol id="icon-svg-heart" viewBox="0 0 34 32"><path fill="#ff6b08" style="fill:var(--color1,#ff6b08)" d="m17.231 31.705-2.412-2.412C5.859 21.367.001 16.025.001 9.478.001 4.136 4.136.001 9.478.001c2.929 0 5.858 1.378 7.754 3.618 1.895-2.24 4.825-3.618 7.754-3.618 5.342 0 9.477 4.135 9.477 9.477 0 6.548-5.858 11.889-14.818 19.815l-2.412 2.412z"/></symbol><symbol id="icon-close" viewBox="0 0 32 32"><path d="M32 3.223 28.777 0 16 12.777 3.223 0 0 3.223 12.777 16 0 28.777 3.223 32 16 19.223 28.777 32 32 28.777 19.223 16 32 3.223z"/></symbol><symbol id="youTube-icon" viewBox="0 0 48 32"><path fill="red" style="fill:var(--color1,red)" d="M41.69 7.055a4.639 4.639 0 0 0-3.265-3.285C35.546 2.993 24 2.993 24 2.993s-11.546 0-14.425.777A4.64 4.64 0 0 0 6.31 7.055C5.539 9.953 5.539 16 5.539 16s0 6.047.771 8.945a4.64 4.64 0 0 0 3.264 3.286c2.879.776 14.425.776 14.425.776s11.546 0 14.425-.776a4.642 4.642 0 0 0 3.265-3.286c.772-2.898.772-8.945.772-8.945s0-6.047-.772-8.945z"/><path fill="#fff" style="fill:var(--color2,#fff)" d="m20.224 21.49 9.65-5.49-9.65-5.49z"/></symbol></defs></svg>