<svg xmlns="http://www.w3.org/2000/svg" width="15" height="15"><style>.a{fill:#f0c419}</style><g fill="none"><g class="a"><path d="M7.5 0c-.1 0-.2.1-.2.3v1.5c0 .1.1.2.2.2s.3-.1.3-.2V.3c0-.2-.2-.3-.3-.3ZM7.5 13c-.1 0-.2.1-.2.3v1.5c0 .1.1.2.2.2s.3-.1.3-.2v-1.5c0-.2-.2-.3-.3-.3ZM14.8 7.3h-1.5c-.2 0-.3.1-.3.2s.1.3.3.3h1.5c.1 0 .2-.2.2-.3 0-.1-.1-.2-.2-.2ZM2 7.5c0-.1-.1-.2-.2-.2H.3c-.2 0-.3.1-.3.2s.1.3.3.3h1.5c.1 0 .2-.2.2-.3ZM11.6 3.7s.1 0 .1-.1l1.5-1.4c.1-.1.1-.3 0-.4-.1-.1-.3-.1-.4 0l-1.4 1.5c-.1.1-.1.2 0 .3 0 .1.1.1.2.1ZM3.3 11.4l-1.5 1.4c-.1.1-.1.3 0 .4.1 0 .1.1.2.1s.1-.1.2-.1l1.4-1.5c.1-.1.1-.2 0-.3-.1-.1-.2-.1-.3 0ZM11.7 11.4c-.1-.1-.2-.1-.3 0-.1.1-.1.2 0 .3l1.4 1.5c.1 0 .1.1.2.1s.1-.1.2-.1c.1-.1.1-.3 0-.4l-1.5-1.4ZM2.2 1.8c-.1-.1-.3-.1-.4 0-.1.1-.1.3 0 .4l1.5 1.4c0 .1.1.1.1.1.1 0 .2 0 .2-.1.1-.1.1-.2 0-.3L2.2 1.8ZM12.6 5.4s.1.1.2.1h.1l.7-.3c.1-.1.2-.2.1-.3 0-.2-.2-.2-.3-.2l-.7.3c-.1.1-.2.2-.1.4ZM2.4 9.6c0-.1-.2-.1-.3-.1l-.7.3c-.1.1-.2.2-.1.3 0 .1.1.2.2.2h.1l.7-.3c.1-.1.2-.2.1-.4ZM13.6 9.7l-.7-.3c-.1 0-.2 0-.3.2-.1.1 0 .2.1.3l.7.3h.1c.1 0 .2-.1.3-.2 0-.1-.1-.2-.2-.3ZM1.4 5.3l.7.3h.1c.1 0 .2-.1.2-.2.1-.1 0-.2-.1-.3l-.7-.3c-.2 0-.3 0-.4.2 0 .1.1.2.2.3ZM10 12.7c-.1-.1-.2-.2-.4-.1-.1 0-.1.2-.1.3l.3.7c0 .1.1.1.2.1h.1c.2 0 .2-.2.2-.3l-.3-.7ZM5.3 2.5l.1-.1c.1 0 .1-.2.1-.3l-.3-.7c-.1-.1-.2-.2-.3-.1-.2 0-.2.2-.2.3l.3.7c.1.1.2.2.3.2ZM5.4 12.6c-.1-.1-.2 0-.3.1l-.3.7c0 .2 0 .3.2.4h.1c.1 0 .2-.1.2-.2l.3-.7c0-.1 0-.2-.2-.3ZM9.7 2.4c.1 0 .1 0 .2-.1l.3-.7c0-.2 0-.3-.2-.4-.1 0-.2.1-.3.2l-.3.7c0 .1 0 .2.2.3h.1Z"/></g><circle cx="7.5" cy="7.5" r="5" class="a"/><circle cx="7.5" cy="7.5" r="3.8" fill="#EDE21B"/></g></svg>